<mxfile host="app.diagrams.net" agent="Mozilla/5.0 (X11; Ubuntu; Linux x86_64; rv:140.0) Gecko/20100101 Firefox/140.0" version="27.2.0">
  <diagram id="prtHgNgQTEPvFCAcTncT" name="Page-1">
    <mxGraphModel dx="981" dy="455" grid="1" gridSize="10" guides="1" tooltips="1" connect="1" arrows="1" fold="1" page="1" pageScale="1" pageWidth="827" pageHeight="1169" math="0" shadow="0">
      <root>
        <mxCell id="0" />
        <mxCell id="1" parent="0" />
        <mxCell id="Zq63p_5ZVFqSqhZ2solw-1" value="Quotation Creation" style="swimlane;childLayout=stackLayout;resizeParent=1;resizeParentMax=0;horizontal=1;startSize=20;horizontalStack=0;html=1;" parent="1" vertex="1">
          <mxGeometry x="34" y="55" width="700" height="390" as="geometry" />
        </mxCell>
        <mxCell id="Zq63p_5ZVFqSqhZ2solw-2" value="Sales User" style="swimlane;startSize=20;horizontal=0;html=1;" parent="Zq63p_5ZVFqSqhZ2solw-1" vertex="1">
          <mxGeometry y="20" width="700" height="170" as="geometry" />
        </mxCell>
        <mxCell id="Zq63p_5ZVFqSqhZ2solw-3" value="&lt;strong&gt;System&lt;/strong&gt;" style="swimlane;startSize=20;horizontal=0;html=1;" parent="Zq63p_5ZVFqSqhZ2solw-1" vertex="1">
          <mxGeometry y="190" width="700" height="200" as="geometry" />
        </mxCell>
        <mxCell id="faZruuLXonxoN6pcGB2F-1" style="edgeStyle=orthogonalEdgeStyle;rounded=0;orthogonalLoop=1;jettySize=auto;html=1;exitX=1;exitY=0.5;exitDx=0;exitDy=0;entryX=0;entryY=0.5;entryDx=0;entryDy=0;" edge="1" parent="1" source="faZruuLXonxoN6pcGB2F-2" target="faZruuLXonxoN6pcGB2F-3">
          <mxGeometry relative="1" as="geometry" />
        </mxCell>
        <mxCell id="faZruuLXonxoN6pcGB2F-2" value="Start" style="ellipse;whiteSpace=wrap;html=1;aspect=fixed;" vertex="1" parent="1">
          <mxGeometry x="110" y="125" width="50" height="50" as="geometry" />
        </mxCell>
        <mxCell id="faZruuLXonxoN6pcGB2F-3" value="Open Design Form" style="rounded=0;whiteSpace=wrap;html=1;" vertex="1" parent="1">
          <mxGeometry x="183" y="120" width="120" height="60" as="geometry" />
        </mxCell>
      </root>
    </mxGraphModel>
  </diagram>
</mxfile>
